<?xml version="1.0" standalone="no"?>
<!DOCTYPE svg PUBLIC "-//W3C//DTD SVG 20010904//EN"
 "http://www.w3.org/TR/2001/REC-SVG-20010904/DTD/svg10.dtd">
<svg version="1.0" xmlns="http://www.w3.org/2000/svg"
 width="548.000000pt" height="548.000000pt" viewBox="0 0 548.000000 548.000000"
 preserveAspectRatio="xMidYMid meet">
<metadata>
Created by potrace 1.11, written by Peter Selinger 2001-2013
</metadata>
<g transform="translate(0.000000,548.000000) scale(0.100000,-0.100000)"
fill="#000000" stroke="none">
<path d="M2610 5474 c-478 -31 -886 -154 -1271 -385 -655 -391 -1118 -1039
-1278 -1790 -73 -341 -73 -777 0 -1118 228 -1067 1053 -1892 2120 -2120 341
-73 777 -73 1118 0 1067 228 1892 1053 2120 2120 73 341 73 777 0 1118 -228
1067 -1053 1892 -2120 2120 -185 39 -518 66 -689 55z m-245 -1494 c333 -32
579 -221 679 -521 55 -165 56 -181 56 -1091 l0 -840 -123 3 c-178 6 -185 11
-227 217 -27 128 -13 125 -126 29 -99 -84 -174 -134 -278 -183 -116 -55 -222
-82 -363 -94 -442 -36 -731 167 -773 543 -27 238 63 421 279 565 104 70 217
118 383 165 213 61 406 90 688 105 l135 7 3 65 c6 117 -16 315 -43 397 -69
204 -219 303 -460 303 -171 0 -316 -52 -524 -189 -85 -56 -98 -61 -147 -61
-68 0 -97 24 -158 130 l-44 75 46 40 c243 214 493 317 817 338 28 2 55 4 60 5
6 1 59 -3 120 -8z m1735 -1921 c222 -98 231 -415 15 -532 -58 -32 -212 -32
-271 0 -164 88 -206 318 -82 458 87 99 217 127 338 74z"/>
<path d="M2500 2610 c-260 -18 -517 -73 -653 -139 -173 -84 -240 -179 -239
-336 3 -244 183 -370 488 -343 194 17 350 91 529 252 l75 67 0 255 0 254 -47
-2 c-27 0 -95 -4 -153 -8z"/>
</g>
</svg>
